<svg width="2718" height="1262" viewBox="0 0 2718 1262" fill="none" xmlns="http://www.w3.org/2000/svg">
<mask id="mask0_1713_727" style="mask-type:alpha" maskUnits="userSpaceOnUse" x="0" y="0" width="2718" height="1262">
<rect width="2718" height="1262" rx="72" fill="white"/>
</mask>
<g mask="url(#mask0_1713_727)">
<path d="M717.047 945.7L654.047 1004.21C636.232 1021.99 634.071 1025.71 655.069 1035.71C668.571 1042.14 669.42 1055.61 664.557 1073.21L655.055 1112.21C650.382 1130.13 648.726 1138.59 664.557 1122.71L725.047 1065.2C746.784 1044.31 746.57 1041.71 723.57 1030.71C711.025 1024.71 709.547 1015.7 717.047 992.2L727.547 949.2C731.681 933.13 728.469 933.968 717.047 945.7Z" stroke="#F84D69" stroke-width="7"/>
<path d="M757.874 809.142L597.712 958.05C552.422 1003.32 546.926 1012.77 600.31 1038.22C634.634 1054.58 636.792 1088.88 624.43 1133.66L600.275 1232.92C588.394 1278.55 584.184 1300.08 624.43 1259.65L778.212 1113.28C833.473 1060.12 832.93 1053.49 774.458 1025.5C742.564 1010.23 738.807 987.301 757.874 927.49L784.568 818.05C795.077 777.149 786.911 779.283 757.874 809.142Z" stroke="#F84D69" stroke-width="7"/>
<path d="M818.17 607.954L514.672 890.095C428.849 975.862 418.435 993.775 519.596 1042C584.637 1073 588.727 1137.98 565.301 1222.84L519.528 1410.91C497.015 1497.36 489.037 1538.16 565.301 1461.54L856.71 1184.22C961.426 1083.5 960.396 1070.93 849.595 1017.89C789.158 988.953 782.039 945.517 818.17 832.192L868.753 624.832C888.667 547.335 873.194 551.378 818.17 607.954Z" stroke="#F84D69" stroke-width="7"/>
<path d="M884.233 387.648L423.689 815.682C293.457 945.8 277.654 972.975 431.161 1046.13C529.857 1093.17 536.065 1191.75 500.516 1320.48L431.058 1605.8C396.895 1736.96 384.79 1798.85 500.517 1682.62L942.715 1261.9C1101.62 1109.09 1100.05 1090.03 931.919 1009.55C840.208 965.659 829.407 899.763 884.233 727.839L960.991 413.254C991.21 295.684 967.73 301.817 884.233 387.648Z" stroke="#F84D69" stroke-width="7"/>
<path d="M981.755 62.6511L289.38 705.908C93.5927 901.451 69.8344 942.29 300.614 1052.24C448.992 1122.92 458.325 1271.07 404.881 1464.53L300.459 1893.32C249.099 2090.42 230.901 2183.43 404.883 2008.76L1069.68 1376.5C1308.57 1146.85 1306.22 1118.2 1053.44 997.263C915.569 931.296 899.33 832.267 981.755 573.896L1097.15 101.132C1142.58 -75.5539 1107.28 -66.3376 981.755 62.6511Z" stroke="#F84D69" stroke-width="7"/>
<path d="M1100.77 -334.264L125.466 571.843C-150.328 847.289 -183.795 904.816 141.291 1059.69C350.302 1159.26 363.448 1367.94 288.166 1640.45L141.073 2244.45C68.725 2522.1 43.0896 2653.12 288.168 2407.07L1224.62 1516.45C1561.14 1192.96 1557.82 1152.61 1201.76 982.251C1007.54 889.329 984.666 749.834 1100.77 385.887L1263.33 -280.059C1327.32 -528.942 1277.6 -515.96 1100.77 -334.264Z" stroke="#F84D69" stroke-width="7"/>
<path d="M1225.56 -750.296L-46.3907 431.32C-406.069 790.518 -449.715 865.536 -25.7526 1067.5C246.83 1197.35 263.974 1469.48 165.794 1824.85L-26.0374 2612.5C-120.39 2974.57 -153.823 3145.43 165.797 2824.56L1387.08 1663.14C1825.94 1241.3 1821.62 1188.67 1357.26 966.517C1103.97 845.34 1074.14 663.431 1225.56 188.823L1437.55 -679.61C1521.01 -1004.17 1456.16 -987.239 1225.56 -750.296Z" stroke="#F84D69" stroke-width="7"/>
</g>
</svg>
