<svg width="2049" height="3928" viewBox="0 0 2049 3928" fill="none" xmlns="http://www.w3.org/2000/svg">
<path d="M1051.05 1875.7L988.047 1934.21C970.232 1951.99 968.071 1955.71 989.069 1965.71C1002.57 1972.14 1003.42 1985.61 998.557 2003.21L989.055 2042.21C984.382 2060.13 982.726 2068.59 998.557 2052.71L1059.05 1995.2C1080.78 1974.31 1080.57 1971.71 1057.57 1960.71C1045.02 1954.71 1043.55 1945.7 1051.05 1922.2L1061.55 1879.2C1065.68 1863.13 1062.47 1863.97 1051.05 1875.7Z" stroke="url(#paint0_linear_1713_1278)" stroke-width="7"/>
<path d="M1091.87 1739.14L931.712 1888.05C886.422 1933.32 880.926 1942.77 934.31 1968.22C968.634 1984.58 970.792 2018.88 958.43 2063.66L934.275 2162.92C922.394 2208.55 918.184 2230.08 958.43 2189.65L1112.21 2043.28C1167.47 1990.12 1166.93 1983.49 1108.46 1955.5C1076.56 1940.23 1072.81 1917.3 1091.87 1857.49L1118.57 1748.05C1129.08 1707.15 1120.91 1709.28 1091.87 1739.14Z" stroke="url(#paint1_linear_1713_1278)" stroke-width="7"/>
<path d="M1152.17 1537.95L848.672 1820.09C762.849 1905.86 752.435 1923.77 853.596 1972C918.637 2003 922.727 2067.98 899.301 2152.84L853.528 2340.91C831.015 2427.36 823.037 2468.16 899.301 2391.54L1190.71 2114.22C1295.43 2013.5 1294.4 2000.93 1183.59 1947.89C1123.16 1918.95 1116.04 1875.52 1152.17 1762.19L1202.75 1554.83C1222.67 1477.34 1207.19 1481.38 1152.17 1537.95Z" stroke="url(#paint2_linear_1713_1278)" stroke-width="7"/>
<path d="M1218.23 1317.65L757.689 1745.68C627.457 1875.8 611.654 1902.97 765.161 1976.13C863.857 2023.17 870.065 2121.75 834.516 2250.48L765.058 2535.8C730.895 2666.96 718.79 2728.85 834.517 2612.62L1276.72 2191.9C1435.62 2039.09 1434.05 2020.03 1265.92 1939.55C1174.21 1895.66 1163.41 1829.76 1218.23 1657.84L1294.99 1343.25C1325.21 1225.68 1301.73 1231.82 1218.23 1317.65Z" stroke="url(#paint3_linear_1713_1278)" stroke-width="7"/>
<path d="M1315.76 992.651L623.38 1635.91C427.593 1831.45 403.834 1872.29 634.614 1982.24C782.992 2052.92 792.325 2201.07 738.881 2394.53L634.459 2823.32C583.099 3020.42 564.901 3113.43 738.883 2938.76L1403.68 2306.5C1642.57 2076.85 1640.22 2048.2 1387.44 1927.26C1249.57 1861.3 1233.33 1762.27 1315.76 1503.9L1431.15 1031.13C1476.58 854.446 1441.28 863.662 1315.76 992.651Z" stroke="url(#paint4_linear_1713_1278)" stroke-width="7"/>
<path d="M1434.77 595.736L459.466 1501.84C183.672 1777.29 150.205 1834.82 475.291 1989.69C684.302 2089.26 697.448 2297.94 622.166 2570.45L475.073 3174.45C402.725 3452.1 377.09 3583.12 622.168 3337.07L1558.62 2446.45C1895.14 2122.96 1891.82 2082.61 1535.76 1912.25C1341.54 1819.33 1318.67 1679.83 1434.77 1315.89L1597.33 649.941C1661.32 401.058 1611.6 414.04 1434.77 595.736Z" stroke="url(#paint5_linear_1713_1278)" stroke-width="7"/>
<path d="M1559.56 179.704L287.609 1361.32C-72.0688 1720.52 -115.715 1795.54 308.247 1997.5C580.83 2127.35 597.974 2399.48 499.794 2754.85L307.963 3542.5C213.61 3904.57 180.177 4075.43 499.797 3754.56L1721.08 2593.14C2159.94 2171.3 2155.62 2118.67 1691.26 1896.52C1437.97 1775.34 1408.14 1593.43 1559.56 1118.82L1771.55 250.39C1855.01 -74.1683 1790.16 -57.2386 1559.56 179.704Z" stroke="url(#paint6_linear_1713_1278)" stroke-width="7"/>
<defs>
<linearGradient id="paint0_linear_1713_1278" x1="528.932" y1="1963.02" x2="2720.13" y2="3921.35" gradientUnits="userSpaceOnUse">
<stop stop-color="#F84D69"/>
<stop offset="1" stop-color="#7B1022"/>
</linearGradient>
<linearGradient id="paint1_linear_1713_1278" x1="528.932" y1="1963.02" x2="2720.13" y2="3921.35" gradientUnits="userSpaceOnUse">
<stop stop-color="#F84D69"/>
<stop offset="1" stop-color="#7B1022"/>
</linearGradient>
<linearGradient id="paint2_linear_1713_1278" x1="528.932" y1="1963.02" x2="2720.13" y2="3921.35" gradientUnits="userSpaceOnUse">
<stop stop-color="#F84D69"/>
<stop offset="1" stop-color="#7B1022"/>
</linearGradient>
<linearGradient id="paint3_linear_1713_1278" x1="528.932" y1="1963.02" x2="2720.13" y2="3921.35" gradientUnits="userSpaceOnUse">
<stop stop-color="#F84D69"/>
<stop offset="1" stop-color="#7B1022"/>
</linearGradient>
<linearGradient id="paint4_linear_1713_1278" x1="528.932" y1="1963.02" x2="2720.13" y2="3921.35" gradientUnits="userSpaceOnUse">
<stop stop-color="#F84D69"/>
<stop offset="1" stop-color="#7B1022"/>
</linearGradient>
<linearGradient id="paint5_linear_1713_1278" x1="528.932" y1="1963.02" x2="2720.13" y2="3921.35" gradientUnits="userSpaceOnUse">
<stop stop-color="#F84D69"/>
<stop offset="1" stop-color="#7B1022"/>
</linearGradient>
<linearGradient id="paint6_linear_1713_1278" x1="528.932" y1="1963.02" x2="2720.13" y2="3921.35" gradientUnits="userSpaceOnUse">
<stop stop-color="#F84D69"/>
<stop offset="1" stop-color="#7B1022"/>
</linearGradient>
</defs>
</svg>
